<svg t="1616135993866" class="icon" viewBox="0 0 1024 1024" version="1.1" xmlns="http://www.w3.org/2000/svg" p-id="6680" width="200" height="200"><path d="M257.141 320.149h324.88c15.954 0 29.006-13.054 29.006-29.007v-5.801c0-15.955-13.053-29.008-29.006-29.008H257.14c-15.954 0-29.006 13.053-29.006 29.008v5.8c0 15.954 13.053 29.008 29.006 29.008z m-29.006 98.913c0 15.955 13.053 29.007 29.006 29.007h324.88c15.954 0 29.006-13.053 29.006-29.007v-5.8c0-15.955-13.053-29.007-29.006-29.007H257.14c-15.954 0-29.006 13.053-29.006 29.006v5.801z" p-id="6681" fill="#666666"></path><path d="M492.114 914.555a259.466 259.466 0 0 1-18.953-21.17h-312.19c-17.594 0-31.908-14.314-31.908-31.909V158.483c0-17.594 14.314-31.908 31.908-31.908h576.06c17.593 0 31.907 14.314 31.907 31.908v339.05c22.852 9.304 44.325 21.965 63.815 37.726V158.483c0-52.783-42.94-95.724-95.723-95.724H160.972c-52.782 0-95.723 42.941-95.723 95.724v702.994c0 52.783 42.941 95.724 95.723 95.724h387.472c-20.4-11.392-39.353-25.669-56.33-42.646z" p-id="6682" fill="#666666"></path><path d="M837.062 854.078l-48.197-48.198c16.478-25.102 26.08-55.104 26.08-87.31 0-87.97-71.568-159.538-159.539-159.538-87.97 0-159.537 71.568-159.537 159.538 0 87.97 71.568 159.538 159.537 159.538 32.735 0 63.194-9.916 88.545-26.893l47.987 47.987c12.41 12.41 32.715 12.41 45.124 0 12.41-12.409 12.41-32.714 0-45.124zM559.683 718.57c0-52.781 42.942-95.723 95.723-95.723 52.782 0 95.724 42.942 95.724 95.723 0 52.782-42.942 95.724-95.724 95.724-52.781 0-95.723-42.942-95.723-95.724z" p-id="6683" fill="#666666"></path></svg>