<svg t="1616135689912" class="icon" viewBox="0 0 1024 1024" version="1.1" xmlns="http://www.w3.org/2000/svg" p-id="4392" width="200" height="200"><path d="M74.839 320.6H949.16v-30.018c0-54.47-42.38-98.73-93.552-98.73H168.39c-51.172 0-93.552 44.26-93.552 98.73v30.017z m874.322 46.85H74.84v365.953c0 54.484 42.378 98.746 93.552 98.746h409.933c12.934 0 23.419 10.488 23.419 23.425 0 12.938-10.485 23.426-23.42 23.426H168.392C90.885 879 28 813.32 28 733.403V290.582C28 210.678 90.888 145 168.391 145H855.61C933.112 145 996 210.678 996 290.582v337.265c0 12.938-10.485 23.426-23.42 23.426-12.934 0-23.419-10.488-23.419-23.426V367.45z" p-id="4393" fill="#666666"></path><path d="M155.615 520h286.776c30.13 0 30.161-47 0-47H155.615c-30.13 0-30.177 47 0 47M597.61 520h96.78c30.123 0 30.17-47 0-47h-96.78c-30.123 0-30.17 47 0 47" p-id="4394" fill="#666666"></path><path d="M376.61 672.533c6.645 0 12.14-5.537 12.14-12.24v-5.586c0-6.703-5.495-12.24-12.14-12.24H183.405c-6.652 0-12.156 5.542-12.156 12.24v5.586c0 6.698 5.504 12.24 12.156 12.24H376.61z m0 31.467H183.405C159.496 704 140 684.37 140 660.293v-5.586C140 630.631 159.496 611 183.406 611H376.61C400.52 611 420 630.63 420 654.707v5.586C420 684.369 400.52 704 376.61 704z" p-id="4395" fill="#666666"></path><path d="M829.637 775.336v81.014h-46.774 46.774c0 30.231-46.774 30.169-46.774 0v-81.014h-74.271c-30.154 0-30.091-46.895 0-46.895h74.271v-70.785c0-30.231 46.774-30.185 46.774 0v70.785h68.777c30.138 0 30.091 46.895 0 46.895h-68.777z" p-id="4396" fill="#666666"></path></svg>