<svg t="1616135601876" class="icon" viewBox="0 0 1216 1024" version="1.1" xmlns="http://www.w3.org/2000/svg" p-id="2755" width="200" height="200"><path d="M1152 493.632a319.744 319.744 0 0 0-64-37.312V227.968c0-50.048-2.816-65.28-10.88-80.896a60.864 60.864 0 0 0-25.28-26.112c-15.104-8.32-29.824-11.264-78.208-11.264H178.368c-48.384 0-63.104 2.944-78.208 11.264a60.864 60.864 0 0 0-25.28 26.112C66.816 162.688 64 177.92 64 227.968v595.456c0 50.048 2.816 65.28 10.88 80.832 5.952 11.52 14.208 20.032 25.28 26.176 15.104 8.32 29.824 11.264 78.208 11.264H704a321.92 321.92 0 0 0 64 64H184.576c-64.192 0-87.424-6.848-110.912-19.712a132.544 132.544 0 0 1-54.4-55.872C6.656 906.048 0 882.176 0 816.32V235.008C0 169.152 6.656 145.28 19.2 121.216c12.608-24.064 30.976-42.88 54.464-55.808 23.488-12.864 46.72-19.712 110.912-19.712h782.848c64.192 0 87.424 6.848 110.912 19.712s41.856 31.744 54.4 55.808c12.608 24.064 19.264 48 19.264 113.792v258.624z m-912-256h288a48 48 0 1 1 0 96h-288a48 48 0 1 1 0-96z m0 192h288a48 48 0 1 1 0 96h-288a48 48 0 1 1 0-96z m0 192h160a48 48 0 1 1 0 96h-160a48 48 0 1 1 0-96z m720 384a256 256 0 1 1 0-512 256 256 0 0 1 0 512z m0-131.84c20.352 0.256 39.68-9.728 47.04-26.048l78.016-172.992c9.216-20.48-3.84-43.2-29.312-50.688-25.408-7.488-53.504 3.136-62.784 23.68L960 720.704l-32.96-73.088c-9.28-20.48-37.376-31.104-62.784-23.616-25.408 7.488-38.528 30.144-29.312 50.688l78.08 172.992c7.296 16.32 26.624 26.304 46.976 25.984z" p-id="2756" fill="#666666"></path></svg>