<svg t="1616135829248" class="icon" viewBox="0 0 1024 1024" version="1.1" xmlns="http://www.w3.org/2000/svg" p-id="6515" width="200" height="200"><path d="M102.838412 1017.15843c-41.451597-11.198931-78.15204-46.496437-93.425728-89.861595-6.664714-18.997455-7.74429-76.532166-7.74429-414.79738 0-439.083219-1.483776-420.083718 36.16219-462.991463 11.062833-12.60289 31.004788-28.280779 44.283052-34.865677l24.206022-11.927516 372.995816 0 373.021399 0L882.587494 18.204402c23.396596 12.008356 34.919911 22.290415 50.705246 45.280764l20.402438 29.765579 1.64648 73.427492c1.91356 84.734891-0.918918 94.611726-27.066129 94.611726-28.201985 0-33.275478-12.547632-33.275478-82.306614 0-65.277977-5.424482-80.363379-37.374794-104.109942C843.324722 64.213751 840.489174 64.16054 482.417079 64.16054c-352.863528 0-361.174723 0.214892-378.661796 10.361876-10.577791 6.126462-22.532936 19.618595-29.359331 33.084122l-11.46908 22.722246L62.926872 512.230328l0 381.901545 11.46908 22.720199c20.211082 39.993403 30.600587 43.04282 155.894763 46.011396 117.657332 2.779267 118.25289 2.939924 118.413547 31.706768 0.16168 26.850214-12.007333 29.766602-122.298994 29.389007C163.366258 1023.741281 117.950419 1021.260816 102.838412 1017.15843L102.838412 1017.15843zM981.786647 1020.774751c-4.238484-1.485823-41.127213-36.001533-82.009859-76.667241l-74.318781-73.912533-43.985274 27.688292c-25.555747 16.08209-62.850724 33.893547-88.999981 42.500474-41.422945 13.601625-51.057259 14.788646-119.087898 14.6812-69.64949-0.135075-76.638588-1.079575-118.736908-16.056508-63.443211-22.587171-97.093214-44.149001-146.694326-93.990586-49.005554-49.194864-75.667482-91.294207-95.662649-150.984998-12.467815-37.241766-13.735677-48.006819-13.735677-117.792407 0-69.81117 1.267861-80.552688 13.735677-117.792407 19.995167-59.665209 46.631512-101.7359 95.662649-151.064815 48.899132-49.22147 90.564598-75.749346 150.579774-95.880611 37.024827-12.413581 48.007843-13.681442 117.416858-13.681442 69.405946 0 80.388961 1.267861 117.412765 13.681442 60.151274 20.158894 101.656083 46.630489 150.579774 95.960428C918.505117 382.64548 951.076568 455.74961 955.20556 557.132473c3.670556 90.726278-14.949304 160.188505-61.823336 230.512346l-25.203734 37.805601 77.205493 78.044594c50.461702 50.974372 77.232099 81.764269 77.232099 88.807602 0 5.940222-6.044598 15.57249-13.439945 21.40015C995.00863 1024.87509 993.983289 1025.14524 981.786647 1020.774751L981.786647 1020.774751zM642.305759 888.625527c107.080565-22.479725 194.864872-99.926716 235.073167-207.410458 12.817782-34.299795 14.410028-45.227553 14.707806-102.41025 0.323361-57.319819-1.13381-68.382652-13.978197-105.864891-25.905713-75.721717-81.416349-141.000717-151.041279-177.727766-48.220688-25.419649-76.503514-33.651027-128.152237-37.293954-62.176373-4.424724-109.048359 4.829948-163.749569 32.302325-54.024812 27.146969-92.911011 61.445741-126.185465 111.342585-37.158879 55.725527-49.519248 99.360834-49.519248 174.67835 0 53.970577 1.72732 66.546862 14.330211 103.301539 27.011894 78.958396 84.223244 144.262979 158.567607 181.09952C501.092197 894.670126 569.823791 903.846004 642.305759 888.625527L642.305759 888.625527zM559.218371 821.755305c-13.169795-9.283324-15.301317-33.408506-3.940706-44.824375 4.074757-4.072711 20.672587-9.092991 36.917381-11.117067 45.550914-5.693608 80.309144-21.157629 111.127693-49.410779 33.920153-31.088698 52.189022-66.789383 61.363877-119.816483 7.395346-42.77267 12.360369-49.356544 35.702731-47.278234 25.069682 2.184733 31.789655 20.670541 24.207045 66.249083-17.272181 103.516431-94.073473 185.472056-193.676828 206.629685C586.55465 831.632139 573.170986 831.551299 559.218371 821.755305L559.218371 821.755305zM354.855283 512.014413c-14.328164-13.358081-14.059038-19.99619 2.104916-52.027342 24.828185-49.140629 96.043314-111.424448 127.589425-111.586129 15.353505-0.053211 28.659398 16.865933 26.688533 33.974387-1.268885 11.038273-8.419664 18.917638-30.518723 33.543581-29.765579 19.727064-58.048404 50.705246-72.646718 79.526324C394.092472 523.077246 373.5304 529.473857 354.855283 512.014413L354.855283 512.014413zM354.855283 512.014413" p-id="6516" fill="#666666"></path></svg>